<svg id="Layer_1" data-name="Layer 1" xmlns="http://www.w3.org/2000/svg" width="478.94" height="87.67" viewBox="0 0 478.94 87.67">
  <defs>
    <style>
      .cls-1 {
        fill: #e17726;
      }

      .cls-10, .cls-12, .cls-14, .cls-16, .cls-18, .cls-2, .cls-20, .cls-4, .cls-6, .cls-8 {
        fill: none;
        stroke-linecap: round;
        stroke-linejoin: round;
        stroke-width: 0.11px;
      }

      .cls-2 {
        stroke: #e17726;
      }

      .cls-3 {
        fill: #e27625;
      }

      .cls-4 {
        stroke: #e27625;
      }

      .cls-5 {
        fill: #d5bfb2;
      }

      .cls-6 {
        stroke: #d5bfb2;
      }

      .cls-7 {
        fill: #233447;
      }

      .cls-8 {
        stroke: #233447;
      }

      .cls-9 {
        fill: #cc6228;
      }

      .cls-10 {
        stroke: #cc6228;
      }

      .cls-11 {
        fill: #e27525;
      }

      .cls-12 {
        stroke: #e27525;
      }

      .cls-13 {
        fill: #f5841f;
      }

      .cls-14 {
        stroke: #f5841f;
      }

      .cls-15 {
        fill: #c0ac9d;
      }

      .cls-16 {
        stroke: #c0ac9d;
      }

      .cls-17 {
        fill: #161616;
      }

      .cls-18 {
        stroke: #161616;
      }

      .cls-19 {
        fill: #763e1a;
      }

      .cls-20 {
        stroke: #763e1a;
      }
    </style>
  </defs>
  <title>metamask-logo-freelogovectors.net</title>
  <g>
    <path d="M489.4,271.06l-21.12-21.79a.21.21,0,0,1,0-.28l19-19.71a.18.18,0,0,0,.1-.27c-.05-.12-.14-.15-.27-.1h-7.77a.13.13,0,0,0-.14.09l-16.13,16.69a.2.2,0,0,1-.22,0,.21.21,0,0,1-.14-.18V229.14a.24.24,0,0,0-.23-.23h-6.11a.23.23,0,0,0-.22.23v42.09a.24.24,0,0,0,.22.22h6.11a.25.25,0,0,0,.23-.22V252.7a.21.21,0,0,1,.36-.14l18.3,18.81a.28.28,0,0,0,.11.08h7.8c.14,0,.28-.28.12-.39ZM197,265.17V252.11a.21.21,0,0,1,.19-.22h16.28a.25.25,0,0,0,.22-.2v-5.27a.22.22,0,0,0-.22-.22H197.23A.21.21,0,0,1,197,246V234.83a.21.21,0,0,1,.19-.23h18.53a.24.24,0,0,0,.22-.22v-5.24a.23.23,0,0,0-.22-.23H190.7a.23.23,0,0,0-.22.23V271.2a.24.24,0,0,0,.22.22h25.82a.24.24,0,0,0,.22-.22v-5.58a.22.22,0,0,0-.22-.22H197.2c-.11,0-.16-.11-.16-.25Zm180.51-12.35L382,236.35a.22.22,0,0,1,.22-.15.21.21,0,0,1,.21.15l4.47,16.47a.25.25,0,0,1-.22.28h-8.93c-.14,0-.28-.14-.22-.28Zm14.58,18.6h5.58a.25.25,0,0,0,.22-.28l-11.49-42.28c-.05-.11-.11-.17-.22-.17h-8a.23.23,0,0,0-.22.17l-11.49,42.23a.24.24,0,0,0,.23.28h5.54a.23.23,0,0,0,.23-.14L375.83,259a.21.21,0,0,1,.22-.14h12.31a.2.2,0,0,1,.19.14l3.35,12.28c0,.08.12.17.2.17Zm-109.37-18.6,4.45-16.47c0-.15.07-.23.22-.23a.21.21,0,0,1,.23.23l4.45,16.47a.21.21,0,0,1-.2.28H283c-.17,0-.29-.14-.23-.28Zm14.58,18.6h5.58a.21.21,0,0,0,.19-.28L291.6,228.89c0-.12-.09-.17-.2-.17h-8a.22.22,0,0,0-.2.17L271.7,271.11a.21.21,0,0,0,.19.29h5.58a.24.24,0,0,0,.22-.15L281,259c0-.11.12-.14.23-.14h12.27a.23.23,0,0,1,.23.14l3.32,12.27a.38.38,0,0,0,.23.17Zm-36-42.53H232.42a.23.23,0,0,0-.19.19v5.3a.24.24,0,0,0,.19.22H243.6v36.6a.24.24,0,0,0,.2.25h6.11a.24.24,0,0,0,.22-.22V234.57h11.15a.24.24,0,0,0,.22-.22v-5.27a.19.19,0,0,0-.22-.19Zm78.8,0a.23.23,0,0,0-.23.14l-5,16.49a.2.2,0,0,1-.23.23c-.15,0-.22-.08-.22-.23l-5-16.49c0-.12-.09-.14-.2-.14h-9.29a.24.24,0,0,0-.22.19V271.2a.24.24,0,0,0,.22.22H326a.25.25,0,0,0,.2-.22v-32c0-.25.36-.28.45,0l5.07,16.6.33,1.13c.06.14.12.17.23.17H337a.27.27,0,0,0,.23-.14l.36-1.18,5.07-16.61a.22.22,0,0,1,.42.08v32a.26.26,0,0,0,.23.23h6.11a.25.25,0,0,0,.22-.23V229.08a.24.24,0,0,0-.22-.19Zm-171.67,0h-5.69a.23.23,0,0,0-.2.14l-5,16.49c0,.15-.07.23-.22.23a.2.2,0,0,1-.23-.23l-5-16.49c0-.12-.11-.14-.23-.14h-9.31a.24.24,0,0,0-.23.19V271.2a.24.24,0,0,0,.23.22h6.1a.24.24,0,0,0,.23-.22v-32a.21.21,0,0,1,.42,0l5.07,16.6.37,1.13c0,.14.08.17.19.17h4.7a.21.21,0,0,0,.2-.14l.37-1.18,5.06-16.61c.06-.23.43-.17.43.08v32a.25.25,0,0,0,.22.23H172a.26.26,0,0,0,.23-.23V229.08a.25.25,0,0,0-.23-.19ZM433.6,250.25c-2.51-1.63-5.24-2.81-7.83-4.28a30.38,30.38,0,0,1-4.95-3c-2.48-2-2-6.05.62-7.8,3.74-2.48,9.91-1.1,10.58,4a.22.22,0,0,0,.23.2h5.63a.19.19,0,0,0,.19-.28A10.58,10.58,0,0,0,434,230.8a12.72,12.72,0,0,0-8-2.73c-14.87,0-16.25,15.74-8.22,20.69.93.56,8.78,4.51,11.54,6.22a5.69,5.69,0,0,1,2.48,7.32A7.18,7.18,0,0,1,425,266a6.74,6.74,0,0,1-6.37-4.47,8.55,8.55,0,0,1-.22-1.78.23.23,0,0,0-.23-.22H412a.24.24,0,0,0-.19.22c0,4.39,1.09,6.84,4.08,9.07a14.79,14.79,0,0,0,9.06,3c8.36,0,12.67-4.73,13.52-9.6s-.62-9.09-4.9-11.94Z" transform="translate(-10.53 -206.17)"/>
    <polygon class="cls-1" points="90.03 0.06 53.04 27.42 59.94 11.29 90.03 0.06"/>
    <polygon class="cls-2" points="90.03 0.06 53.04 27.42 59.94 11.29 90.03 0.06"/>
    <path class="cls-3" d="M11.34,270l6,20.49,21-5.8-9.8-15L11.34,270Zm75.9-.34-9.85,15,21.09,5.8,6-20.49-17.26-.34Zm-72-63.43,36.65,27.59-6.56-16.33Z" transform="translate(-10.53 -206.17)"/>
    <path class="cls-4" d="M11.34,270l6,20.49,21-5.8-9.8-15L11.34,270Zm75.9-.34-9.85,15,21.09,5.8,6-20.49-17.26-.34Zm-72-63.43,36.65,27.59-6.56-16.33Z" transform="translate(-10.53 -206.17)"/>
    <path class="cls-3" d="M64.83,278.57l12.56,6.11L75.7,270.13l-10.87,8.44Zm-26.46,6.11L51,278.6l-10.87-8.44Zm40.2-40.39L64.05,231.34l-.48,22.71,20.83-1-5.83-8.81Zm-41.33,0-5.85,8.84,20.83,1-.67-22.43L37.24,244.29Z" transform="translate(-10.53 -206.17)"/>
    <path class="cls-4" d="M64.83,278.57l12.56,6.11L75.7,270.13l-10.87,8.44Zm-26.46,6.11L51,278.6l-10.87-8.44Zm40.2-40.39L64.05,231.34l-.48,22.71,20.83-1-5.83-8.81Zm-41.33,0-5.85,8.84,20.83,1-.67-22.43L37.24,244.29Z" transform="translate(-10.53 -206.17)"/>
    <path class="cls-5" d="M38.37,284.68l11.71,5.55L50,286.77l1-8.17Zm39,0L64.83,278.6l1,8.17-.12,3.46Z" transform="translate(-10.53 -206.17)"/>
    <path class="cls-6" d="M38.37,284.68l11.71,5.55L50,286.77l1-8.17Zm39,0L64.83,278.6l1,8.17-.12,3.46Z" transform="translate(-10.53 -206.17)"/>
    <path class="cls-7" d="M65.51,264.72l3.1-6.44,7.4,3.38-10.5,3.09Zm-15.23,0-10.42-3,7.38-3.38,3.07,6.42Z" transform="translate(-10.53 -206.17)"/>
    <path class="cls-8" d="M65.51,264.72l3.1-6.44,7.4,3.38-10.5,3.09Zm-15.23,0-10.42-3,7.38-3.38,3.07,6.42Z" transform="translate(-10.53 -206.17)"/>
    <path class="cls-9" d="M39.86,261.68l7.38-3.38,3.07,6.42L52.25,254l-20.83-.93Zm44.57-8.58-20.84,1,1.92,10.7,3.1-6.47,7.4,3.38,8.42-8.56Zm-8.81,16.55,1.77,15L87.24,270Zm-37.25,15,1.83-15L28.57,270l9.8,14.69Z" transform="translate(-10.53 -206.17)"/>
    <path class="cls-10" d="M39.86,261.68l7.38-3.38,3.07,6.42L52.25,254l-20.83-.93Zm44.57-8.58-20.84,1,1.92,10.7,3.1-6.47,7.4,3.38,8.42-8.56Zm-8.81,16.55,1.77,15L87.24,270Zm-37.25,15,1.83-15L28.57,270l9.8,14.69Z" transform="translate(-10.53 -206.17)"/>
    <path class="cls-11" d="M63.57,254.05l-1,6.65.51,16.66,2.45-12.64L63.57,254Zm-11.32,0-2,10.7,2.48,12.61.56-16.63ZM76,261.68l-.34,8.45,8.73-17L76,261.68ZM31.42,253.1l8.72,17-.28-8.45-8.44-8.58Z" transform="translate(-10.53 -206.17)"/>
    <path class="cls-12" d="M63.57,254.05l-1,6.65.51,16.66,2.45-12.64L63.57,254Zm-11.32,0-2,10.7,2.48,12.61.56-16.63ZM76,261.68l-.34,8.45,8.73-17L76,261.68ZM31.42,253.1l8.72,17-.28-8.45-8.44-8.58Z" transform="translate(-10.53 -206.17)"/>
    <path class="cls-13" d="M39.86,261.68l.28,8.45L51,278.57l1.75-1.21-2.45-12.64-10.48-3Zm25.65,3-2.45,12.64,1.77,1.24,10.84-8.44.34-8.48Z" transform="translate(-10.53 -206.17)"/>
    <path class="cls-14" d="M39.86,261.68l.28,8.45L51,278.57l1.75-1.21-2.45-12.64-10.48-3Zm25.65,3-2.45,12.64,1.77,1.24,10.84-8.44.34-8.48Z" transform="translate(-10.53 -206.17)"/>
    <polygon class="cls-15" points="55.23 84.06 55.32 80.6 54.36 79.81 40.4 79.81 39.47 80.6 39.55 84.06 27.84 78.52 31.95 81.89 40.26 87.61 54.48 87.61 62.81 81.87 66.86 78.52 55.21 84.06 55.23 84.06"/>
    <polygon class="cls-16" points="55.23 84.06 55.32 80.6 54.36 79.81 40.4 79.81 39.47 80.6 39.55 84.06 27.84 78.52 31.95 81.89 40.26 87.61 54.48 87.61 62.81 81.87 66.86 78.52 55.21 84.06 55.23 84.06"/>
    <polygon class="cls-17" points="54.31 72.41 52.53 71.2 42.23 71.2 40.48 72.44 39.47 80.6 40.4 79.81 54.36 79.81 55.32 80.6 54.31 72.44 54.31 72.41"/>
    <polygon class="cls-18" points="54.31 72.41 52.53 71.2 42.23 71.2 40.48 72.44 39.47 80.6 40.4 79.81 54.36 79.81 55.32 80.6 54.31 72.44 54.31 72.41"/>
    <path class="cls-19" d="M10.58,220.27l3.16,15.09-2,1.49,3,2.26-2.25,1.77,2.93,2.7-1.86,1.35,4.28,5,19.42-5.63L51,232.66,15.26,206.22Zm91.56,15.09,3.09-15.06-4.67-14.08L64.81,232.69l13.76,11.57L98,249.92l4.28-5-1.86-1.35,3-2.7-2.25-1.75,3-2.25-2-1.52Z" transform="translate(-10.53 -206.17)"/>
    <path class="cls-20" d="M10.58,220.27l3.16,15.09-2,1.49,3,2.26-2.25,1.77,2.93,2.7-1.86,1.35,4.28,5,19.42-5.63L51,232.66,15.26,206.22Zm91.56,15.09,3.09-15.06-4.67-14.08L64.81,232.69l13.76,11.57L98,249.92l4.28-5-1.86-1.35,3-2.7-2.25-1.75,3-2.25-2-1.52Z" transform="translate(-10.53 -206.17)"/>
    <path class="cls-13" d="M63.57,254.05l1.26-21.39,5.63-15.2H45.35L51,232.66l1.27,21.39.48,6.7v16.61H63.06l.06-16.61.45-6.7Zm-26.33-9.79-19.42,5.66L11.34,270H28.6l11.54.14-8.72-17,5.85-8.84ZM98,249.92l-19.43-5.63,5.86,8.81-8.73,17L87.24,270H104.5Z" transform="translate(-10.53 -206.17)"/>
    <path class="cls-14" d="M63.57,254.05l1.26-21.39,5.63-15.2H45.35L51,232.66l1.27,21.39.48,6.7v16.61H63.06l.06-16.61.45-6.7Zm-26.33-9.79-19.42,5.66L11.34,270H28.6l11.54.14-8.72-17,5.85-8.84ZM98,249.92l-19.43-5.63,5.86,8.81-8.73,17L87.24,270H104.5Z" transform="translate(-10.53 -206.17)"/>
  </g>
</svg>
